<?xml version="1.0" encoding="UTF-8" standalone="no"?><svg xmlns:svg="http://www.w3.org/2000/svg" xmlns="http://www.w3.org/2000/svg" version="1.1" style="overflow:visible" viewBox="-250 -250 500 500" height="500px" width="500px"><rect fill-opacity="0" fill="rgb(0,0,0)" height="500" width="500" y="-250" x="-250" /><svg version="1.1" y="-250" x="-250" viewBox="-250 -250 500 500" height="500px" width="500px" style="overflow:visible"><g transform="rotate(0,0,0)" stroke-linejoin="round" fill="#fff"><path stroke-linecap="butt" stroke-linejoin="round" stroke-width="12" stroke-opacity="1" stroke="rgb(255,63,63)" fill="rgb(255,63,63)" d="m0-196.137l170.001 294.206l-340.001-0.00001z" /></g></svg><svg version="1.1" y="-265" x="-250" viewBox="-250 -250 500 500" height="500px" width="500px" style="overflow:visible"><g transform="rotate(0,0,0)" stroke-linejoin="round" fill="#fff"><path stroke-linecap="butt" stroke-linejoin="round" stroke="none" fill="rgb(255,255,255)" d="m18.35424 66.61824a18.353952 18.339072 0 0 1-18.35496 18.34152a18.353952 18.339072 0 0 1-18.35496-18.34152a18.353952 18.339072 0 0 1 18.35496-18.336624a18.353952 18.339072 0 0 1 18.353952 18.339072z" /><path stroke-linecap="butt" stroke-linejoin="round" stroke="none" fill="rgb(255,255,255)" d="m-0.000481-84.96a23.792544 23.772672 0 0 0-23.792544 23.7732a23.792544 23.772672 0 0 0 0.215678 2.969256l5.222639 71.80896a18.353952 18.339072 0 0 0 18.35496 18.336624a18.353952 18.339072 0 0 0 18.35496-18.336624l5.215775-71.72064a23.792544 23.772672 0 0 0 0.222388-3.0564a23.792544 23.772672 0 0 0-23.79744-23.77368z" /><path stroke-linecap="butt" stroke-linejoin="round" stroke="none" fill="rgb(255,255,255)" d="m-8.916961-76.596192a3.908817 3.905956 0 0 0-2.437052 0.813336c-4.598117 3.444902-6.259344 8.796336-6.679488 13.917504c-0.420092 5.121168 0.198676 10.407359 0.527688 15.212159a3.908817 3.905956 0 1 0 7.798751-0.533012c-0.344602-5.0328-0.864495-10.040256-0.536237-14.041488c0.328219-4.001108 1.302144-6.599904 3.57826-8.3052a3.908817 3.905956 0 0 0-2.252228-7.066656z" /><path stroke-linecap="butt" stroke-linejoin="round" stroke-width="0" stroke-opacity="0" stroke="rgb(0,0,0)" fill="none" d="m18.35424 66.61824a18.353952 18.339072 0 0 1-18.35496 18.34152a18.353952 18.339072 0 0 1-18.35496-18.34152a18.353952 18.339072 0 0 1 18.35496-18.336624a18.353952 18.339072 0 0 1 18.353952 18.339072z" /><path stroke-linecap="butt" stroke-linejoin="round" stroke-width="0" stroke-opacity="0" stroke="rgb(0,0,0)" fill="none" d="m-0.000481-84.96a23.792544 23.772672 0 0 0-23.792544 23.7732a23.792544 23.772672 0 0 0 0.215678 2.969256l5.222639 71.80896a18.353952 18.339072 0 0 0 18.35496 18.336624a18.353952 18.339072 0 0 0 18.35496-18.336624l5.215775-71.72064a23.792544 23.772672 0 0 0 0.222388-3.0564a23.792544 23.772672 0 0 0-23.79744-23.77368z" /></g></svg></svg>